<svg width="230" height="40" viewBox="0 0 230 40" fill="none" xmlns="http://www.w3.org/2000/svg">
<path d="M30 3.3335H25C22.7899 3.3335 20.6702 4.21147 19.1074 5.77427C17.5446 7.33708 16.6667 9.45669 16.6667 11.6668V16.6668H11.6667V23.3335H16.6667V36.6668H23.3333V23.3335H28.3333L30 16.6668H23.3333V11.6668C23.3333 11.2248 23.5089 10.8009 23.8215 10.4883C24.134 10.1758 24.558 10.0002 25 10.0002H30V3.3335Z" stroke="#E8E8E8" stroke-width="3" stroke-linecap="round" stroke-linejoin="round"/>
<path d="M133.333 5.00016C131.737 6.12595 129.97 6.98701 128.1 7.55016C127.096 6.39601 125.762 5.57798 124.278 5.2067C122.795 4.83543 121.233 4.92882 119.803 5.47425C118.374 6.01968 117.147 6.99083 116.288 8.25635C115.429 9.52188 114.98 11.0207 115 12.5502V14.2168C112.071 14.2928 109.169 13.6432 106.552 12.3259C103.935 11.0086 101.684 9.06455 100 6.66682C100 6.66682 93.3334 21.6668 108.333 28.3335C104.901 30.6634 100.812 31.8317 96.6667 31.6668C111.667 40.0002 130 31.6668 130 12.5002C129.998 12.0359 129.954 11.5728 129.867 11.1168C131.568 9.43931 132.768 7.32135 133.333 5.00016V5.00016Z" stroke="#E8E8E8" stroke-width="3" stroke-linecap="round" stroke-linejoin="round"/>
<path d="M218.333 3.3335H201.667C197.064 3.3335 193.333 7.06446 193.333 11.6668V28.3335C193.333 32.9359 197.064 36.6668 201.667 36.6668H218.333C222.936 36.6668 226.667 32.9359 226.667 28.3335V11.6668C226.667 7.06446 222.936 3.3335 218.333 3.3335Z" stroke="#E8E8E8" stroke-width="3" stroke-linecap="round" stroke-linejoin="round"/>
<path d="M216.667 18.95C216.872 20.3371 216.635 21.7537 215.99 22.9984C215.344 24.243 214.322 25.2524 213.069 25.8828C211.817 26.5132 210.397 26.7327 209.013 26.5099C207.629 26.2871 206.35 25.6335 205.358 24.6419C204.367 23.6504 203.713 22.3715 203.49 20.987C203.267 19.6026 203.487 18.1832 204.117 16.9306C204.748 15.6781 205.757 14.6562 207.002 14.0104C208.246 13.3646 209.663 13.1277 211.05 13.3333C212.465 13.5432 213.775 14.2025 214.786 15.2139C215.798 16.2253 216.457 17.5351 216.667 18.95Z" stroke="#E8E8E8" stroke-width="3" stroke-linecap="round" stroke-linejoin="round"/>
<path d="M219.167 10.8335H219.181" stroke="#E8E8E8" stroke-width="3" stroke-linecap="round" stroke-linejoin="round"/>
</svg>
