<svg width="341" height="60" viewBox="0 0 341 60" fill="none" xmlns="http://www.w3.org/2000/svg">
<rect width="341" height="60" rx="10" fill="white"/>
<path d="M37 13.3335H32C29.7899 13.3335 27.6703 14.2115 26.1074 15.7743C24.5446 17.3371 23.6667 19.4567 23.6667 21.6668V26.6668H18.6667V33.3335H23.6667V46.6668H30.3333V33.3335H35.3333L37 26.6668H30.3333V21.6668C30.3333 21.2248 30.5089 20.8009 30.8215 20.4883C31.1341 20.1758 31.558 20.0002 32 20.0002H37V13.3335Z" stroke="black" stroke-width="3" stroke-linecap="round" stroke-linejoin="round"/>
<path d="M140.333 15.0002C138.737 16.126 136.97 16.987 135.1 17.5502C134.096 16.396 132.762 15.578 131.278 15.2067C129.795 14.8354 128.232 14.9288 126.803 15.4742C125.374 16.0197 124.147 16.9908 123.288 18.2564C122.429 19.5219 121.979 21.0207 122 22.5502V24.2168C119.071 24.2928 116.169 23.6432 113.552 22.3259C110.935 21.0086 108.684 19.0646 107 16.6668C107 16.6668 100.333 31.6668 115.333 38.3335C111.901 40.6634 107.812 41.8317 103.667 41.6668C118.667 50.0002 137 41.6668 137 22.5002C136.998 22.0359 136.954 21.5728 136.867 21.1168C138.568 19.4393 139.768 17.3213 140.333 15.0002V15.0002Z" stroke="black" stroke-width="3" stroke-linecap="round" stroke-linejoin="round"/>
<path d="M225.333 13.3335H208.667C204.064 13.3335 200.333 17.0645 200.333 21.6668V38.3335C200.333 42.9359 204.064 46.6668 208.667 46.6668H225.333C229.936 46.6668 233.667 42.9359 233.667 38.3335V21.6668C233.667 17.0645 229.936 13.3335 225.333 13.3335Z" stroke="black" stroke-width="3" stroke-linecap="round" stroke-linejoin="round"/>
<path d="M223.667 28.95C223.872 30.3371 223.635 31.7537 222.99 32.9984C222.344 34.243 221.322 35.2524 220.069 35.8828C218.817 36.5132 217.397 36.7327 216.013 36.5099C214.629 36.2871 213.35 35.6335 212.358 34.6419C211.367 33.6504 210.713 32.3715 210.49 30.987C210.267 29.6026 210.487 28.1832 211.117 26.9306C211.748 25.6781 212.757 24.6562 214.002 24.0104C215.246 23.3646 216.663 23.1277 218.05 23.3333C219.465 23.5432 220.775 24.2025 221.786 25.2139C222.798 26.2253 223.457 27.5351 223.667 28.95Z" stroke="black" stroke-width="3" stroke-linecap="round" stroke-linejoin="round"/>
<path d="M226.167 20.8335H226.181" stroke="black" stroke-width="3" stroke-linecap="round" stroke-linejoin="round"/>
<path d="M325.337 17.5926C323.733 15.972 321.822 14.687 319.716 13.8127C317.61 12.9384 315.35 12.4922 313.07 12.5001C303.515 12.5001 295.728 20.2876 295.728 29.8426C295.728 32.9051 296.533 35.8801 298.038 38.5051L295.588 47.5001L304.775 45.0851C307.313 46.4676 310.165 47.2026 313.07 47.2026C322.625 47.2026 330.413 39.4151 330.413 29.8601C330.413 25.2226 328.61 20.8651 325.337 17.5926V17.5926ZM313.07 44.2626C310.48 44.2626 307.943 43.5626 305.72 42.2501L305.195 41.9351L299.735 43.3701L301.188 38.0501L300.838 37.5076C299.399 35.2098 298.634 32.5538 298.633 29.8426C298.633 21.8976 305.108 15.4226 313.052 15.4226C316.902 15.4226 320.525 16.9276 323.237 19.6576C324.581 20.9945 325.645 22.5848 326.369 24.3361C327.093 26.0874 327.462 27.965 327.455 29.8601C327.49 37.8051 321.015 44.2626 313.07 44.2626V44.2626ZM320.98 33.4826C320.542 33.2726 318.407 32.2226 318.022 32.0651C317.62 31.9251 317.34 31.8551 317.043 32.2751C316.745 32.7126 315.922 33.6926 315.677 33.9726C315.432 34.2701 315.17 34.3051 314.732 34.0776C314.295 33.8676 312.895 33.3951 311.25 31.9251C309.955 30.7701 309.098 29.3526 308.835 28.9151C308.59 28.4776 308.8 28.2501 309.027 28.0226C309.22 27.8301 309.465 27.5151 309.675 27.2701C309.885 27.0251 309.973 26.8326 310.113 26.5526C310.253 26.2551 310.183 26.0101 310.078 25.8001C309.973 25.5901 309.097 23.4551 308.747 22.5801C308.397 21.7401 308.03 21.8451 307.768 21.8276H306.927C306.63 21.8276 306.175 21.9326 305.773 22.3701C305.388 22.8076 304.268 23.8576 304.268 25.9926C304.268 28.1276 305.825 30.1926 306.035 30.4726C306.245 30.7701 309.098 35.1451 313.437 37.0176C314.47 37.4726 315.275 37.7351 315.905 37.9276C316.937 38.2601 317.883 38.2076 318.635 38.1026C319.475 37.9801 321.207 37.0526 321.557 36.0376C321.925 35.0226 321.925 34.1651 321.803 33.9726C321.68 33.7801 321.417 33.6926 320.98 33.4826V33.4826Z" fill="black"/>
</svg>
