<svg width="42" height="42" viewBox="0 0 42 42" fill="none" xmlns="http://www.w3.org/2000/svg">
<path d="M33.3375 8.5926C31.7331 6.97197 29.8221 5.68702 27.7159 4.81269C25.6097 3.93836 23.3505 3.49216 21.07 3.5001C11.515 3.5001 3.7275 11.2876 3.7275 20.8426C3.7275 23.9051 4.5325 26.8801 6.0375 29.5051L3.5875 38.5001L12.775 36.0851C15.3125 37.4676 18.165 38.2026 21.07 38.2026C30.625 38.2026 38.4125 30.4151 38.4125 20.8601C38.4125 16.2226 36.61 11.8651 33.3375 8.5926V8.5926ZM21.07 35.2626C18.48 35.2626 15.9425 34.5626 13.72 33.2501L13.195 32.9351L7.735 34.3701L9.1875 29.0501L8.8375 28.5076C7.39856 26.2098 6.6345 23.5538 6.6325 20.8426C6.6325 12.8976 13.1075 6.4226 21.0525 6.4226C24.9025 6.4226 28.525 7.9276 31.2375 10.6576C32.5806 11.9945 33.645 13.5848 34.3689 15.3361C35.0929 17.0874 35.4621 18.965 35.455 20.8601C35.49 28.8051 29.015 35.2626 21.07 35.2626V35.2626ZM28.98 24.4826C28.5425 24.2726 26.4075 23.2226 26.0225 23.0651C25.62 22.9251 25.34 22.8551 25.0425 23.2751C24.745 23.7126 23.9225 24.6926 23.6775 24.9726C23.4325 25.2701 23.17 25.3051 22.7325 25.0776C22.295 24.8676 20.895 24.3951 19.25 22.9251C17.955 21.7701 17.0975 20.3526 16.835 19.9151C16.59 19.4776 16.8 19.2501 17.0275 19.0226C17.22 18.8301 17.465 18.5151 17.675 18.2701C17.885 18.0251 17.9725 17.8326 18.1125 17.5526C18.2525 17.2551 18.1825 17.0101 18.0775 16.8001C17.9725 16.5901 17.0975 14.4551 16.7475 13.5801C16.3975 12.7401 16.03 12.8451 15.7675 12.8276H14.9275C14.63 12.8276 14.175 12.9326 13.7725 13.3701C13.3875 13.8076 12.2675 14.8576 12.2675 16.9926C12.2675 19.1276 13.825 21.1926 14.035 21.4726C14.245 21.7701 17.0975 26.1451 21.4375 28.0176C22.47 28.4726 23.275 28.7351 23.905 28.9276C24.9375 29.2601 25.8825 29.2076 26.635 29.1026C27.475 28.9801 29.2075 28.0526 29.5575 27.0376C29.925 26.0226 29.925 25.1651 29.8025 24.9726C29.68 24.7801 29.4175 24.6926 28.98 24.4826V24.4826Z" fill="black"/>
</svg>
