<svg width="118" height="30" viewBox="0 0 118 30" fill="none" xmlns="http://www.w3.org/2000/svg">
<path fill-rule="evenodd" clip-rule="evenodd" d="M2.58697 22.1197C3.89445 22.1197 4.96403 21.0502 4.96403 19.7427V13.9331C4.96403 12.6488 6.00507 11.6077 7.28934 11.6077C8.57361 11.6077 9.61466 12.6489 9.61466 13.9331V19.7427C9.61466 21.0502 10.6842 22.1197 11.9917 22.1197C13.2992 22.1197 14.3688 21.0502 14.3688 19.7427V13.9332V13.9331C14.3687 9.96715 11.1993 6.75244 7.28936 6.75244C3.3794 6.75244 0.209961 9.96726 0.209961 13.9331V19.7427C0.209961 21.0502 1.27953 22.1198 2.58701 22.1198L2.58697 22.1197Z" fill="#F1A904"/>
<path fill-rule="evenodd" clip-rule="evenodd" d="M1.40221 8.68842C0.883213 9.37942 0.418472 10.0939 0.195223 10.8254V8.29168C0.092075 8.13301 0.0320506 7.94363 0.0320506 7.74031C0.0320506 7.27462 0.346293 6.88246 0.774301 6.76403C0.3099 6.47962 0 5.96746 0 5.38302C0 4.70542 0.416516 4.12521 1.00749 3.88411C0.682966 3.4753 0.489019 2.9582 0.489019 2.39573C0.489019 1.07266 1.56161 0 2.88468 0C4.20783 0 5.28042 1.07264 5.28042 2.39573C5.28042 3.63921 4.3329 4.66143 3.12041 4.77986C3.19532 4.9663 3.2367 5.16982 3.2367 5.38302C3.2367 6.23807 2.57346 6.93825 1.73337 6.99727C1.93301 7.1823 2.05802 7.44672 2.05802 7.74031C2.05802 8.17401 1.78543 8.54398 1.40223 8.68844L1.40221 8.68842Z" fill="#C29206"/>
<path d="M24.1504 11.5044C23.3343 11.5044 22.6412 11.7944 22.061 12.3696C21.4858 12.9448 21.2007 13.6478 21.2007 14.4738C21.2007 15.2898 21.4858 15.983 22.061 16.5582C22.6412 17.1383 23.3343 17.4234 24.1504 17.4234C24.9763 17.4234 25.6793 17.1383 26.2545 16.5582C26.8297 15.983 27.1198 15.2898 27.1198 14.4738C27.1198 13.6478 26.8297 12.9448 26.2545 12.3696C25.6793 11.7944 24.9763 11.5044 24.1504 11.5044ZM31.8737 14.4738V19.7881C31.8737 20.4567 31.6377 21.027 31.1658 21.4842C30.6938 21.9463 30.0843 22.1774 29.337 22.1774C28.4324 22.1774 27.695 21.8431 27.1198 21.1696C26.1759 21.8431 25.0402 22.1774 23.703 22.1774C22.3708 22.1774 21.1417 21.8283 20.0257 21.1253C18.9049 20.4272 18.0298 19.4833 17.3956 18.3034C16.7614 17.1236 16.4468 15.8454 16.4468 14.4738C16.4468 13.0775 16.7909 11.7895 17.4742 10.6047C18.1625 9.4199 19.0966 8.48089 20.2863 7.78772C21.471 7.09947 22.7591 6.75041 24.1504 6.75041C25.5417 6.75041 26.8297 7.09458 28.0096 7.77297C29.1944 8.45633 30.1334 9.39037 30.8265 10.5752C31.5247 11.76 31.8737 13.0579 31.8737 14.4738ZM40.8851 6.75041C41.8191 6.75041 42.7384 6.90285 43.6528 7.20764C44.5623 7.50747 45.2949 7.94505 45.8405 8.52514C46.1945 8.87909 46.3715 9.34121 46.3715 9.90662C46.3715 10.5211 46.17 11.0668 45.7619 11.5486C45.3539 12.0304 44.8376 12.2663 44.2133 12.2663C43.5791 12.2663 43.0629 12.1385 42.6549 11.878C42.4287 11.7158 42.2419 11.5978 42.1043 11.5191C41.9617 11.4405 41.7847 11.3716 41.5684 11.3028C41.3521 11.234 41.126 11.2045 40.8851 11.2045C40.2508 11.2045 39.7347 11.4552 39.3315 11.9665C38.9284 12.4728 38.7268 13.1365 38.7268 13.9526V19.8176C38.7268 20.4567 38.4909 21.0122 38.0287 21.4792C37.5617 21.9463 37.0013 22.1774 36.3474 22.1774C35.7034 22.1774 35.1528 21.9414 34.6858 21.4695C34.2187 21.0024 33.9876 20.4469 33.9876 19.8176V13.9526C33.9876 11.7453 34.6267 9.99017 35.9001 8.69722C37.1783 7.39937 38.8399 6.75041 40.8851 6.75041ZM48.9033 29.0748C48.2593 29.0748 47.7087 28.8388 47.2417 28.3718C46.7746 27.8998 46.5435 27.3492 46.5435 26.715V14.2722C46.5435 12.8563 46.8975 11.5732 47.6005 10.4179C48.3084 9.26255 49.2425 8.35802 50.4077 7.7189C51.5777 7.07484 52.8411 6.75039 54.2029 6.75039C55.5991 6.75039 56.8871 7.09456 58.0818 7.78281C59.2715 8.46612 60.2105 9.40023 60.9037 10.585C61.5919 11.7649 61.941 13.053 61.941 14.4442C61.941 15.4913 61.7493 16.4893 61.3609 17.448C60.9774 18.4018 60.4662 19.2227 59.8271 19.911C59.1929 20.5944 58.4308 21.1449 57.546 21.5579C56.661 21.9709 55.7466 22.1773 54.7978 22.1773C53.3475 22.1773 52.1726 21.843 51.2828 21.1695V26.715C51.2828 27.359 51.0468 27.9096 50.5846 28.3766C50.1176 28.8436 49.5572 29.0748 48.9033 29.0748ZM54.2029 17.4234C55.0288 17.4234 55.7318 17.1334 56.3169 16.5533C56.897 15.9732 57.187 15.2701 57.187 14.4443C57.187 13.6282 56.897 12.935 56.3169 12.3598C55.7318 11.7895 55.0288 11.5044 54.2029 11.5044C53.3868 11.5044 52.6937 11.7896 52.1185 12.3598C51.5384 12.935 51.2533 13.6282 51.2533 14.4443C51.2533 15.2701 51.5384 15.9732 52.1185 16.5533C52.6937 17.1334 53.3868 17.4234 54.2029 17.4234ZM71.0457 6.75043C72.2846 6.75043 73.435 6.99621 74.5067 7.48784C75.5784 7.97458 76.424 8.62843 77.0435 9.43956C77.6629 10.2507 77.9726 11.1111 77.9726 12.0255C77.9726 12.3893 77.8743 12.6793 77.6777 12.8957C77.481 13.1119 77.1467 13.343 76.6748 13.5938L69.1284 17.5415C69.4529 17.7971 70.0478 17.9298 70.8982 17.9298C71.9356 17.9298 72.8991 17.4873 73.7792 16.6025C74.1281 16.2583 74.4576 15.9978 74.7672 15.8257C75.077 15.6537 75.431 15.5651 75.8243 15.5651C76.4584 15.5651 76.9599 15.7569 77.3335 16.1403C77.7022 16.5287 77.8842 17.0449 77.8842 17.6988C77.8842 18.1707 77.776 18.5738 77.5548 18.9081C76.8419 19.9454 75.898 20.7468 74.7231 21.322C73.5481 21.8923 72.2846 22.1774 70.9277 22.1774C69.4873 22.1774 68.1747 21.8333 66.9899 21.1401C65.8051 20.447 64.8808 19.5128 64.2172 18.3379C63.5535 17.1629 63.2241 15.8749 63.2241 14.4738C63.2241 13.0776 63.5731 11.7895 64.2762 10.6047C64.9743 9.41993 65.928 8.48093 67.1276 7.78776C68.3271 7.09951 69.6348 6.75043 71.0457 6.75043ZM71.1294 10.9439C70.7753 10.9439 70.4017 11.0176 70.0084 11.1651C69.6152 11.3175 69.2366 11.5289 68.8827 11.8092C68.5287 12.0845 68.2337 12.4532 68.0027 12.9153C67.7765 13.3774 67.6536 13.8838 67.6437 14.4442L73.1302 11.5928C72.7025 11.1602 72.0339 10.9439 71.1294 10.9439ZM87.7952 6.75043C89.0438 6.75043 90.1451 7.07984 91.0988 7.73859C92.0526 8.39734 92.7851 9.27734 93.2865 10.3884C93.7929 11.4994 94.0436 12.7432 94.0436 14.1247V19.8176C94.0436 20.4469 93.8125 21.0024 93.3455 21.4695C92.8784 21.9414 92.3279 22.1774 91.6839 22.1774C91.0497 22.1774 90.4892 21.9414 90.0123 21.4695C89.5306 21.0024 89.2897 20.4469 89.2897 19.8176V14.0706C89.2897 13.3479 89.0586 12.7334 88.6014 12.2172C88.1393 11.7059 87.5936 11.4454 86.9594 11.4454C86.3252 11.4454 85.7795 11.7059 85.3223 12.2172C84.8651 12.7334 84.639 13.3479 84.639 14.0706V19.8176C84.639 20.4469 84.403 21.0024 83.936 21.4695C83.464 21.9414 82.9036 22.1774 82.2497 22.1774C81.6155 22.1774 81.0649 21.9414 80.5929 21.4695C80.121 21.0024 79.885 20.4469 79.885 19.8176V9.14461C79.885 8.48089 80.121 7.91556 80.5929 7.44855C81.0649 6.98642 81.6155 6.75043 82.2497 6.75043C82.6823 6.75043 83.0805 6.8635 83.4443 7.08473C83.8082 7.30597 84.0982 7.59601 84.3096 7.95983C85.3665 7.15354 86.5268 6.75043 87.7952 6.75043ZM98.6697 6.75043C99.3285 6.75043 99.8889 6.98642 100.346 7.44855C100.803 7.91556 101.03 8.48091 101.03 9.14461V19.8176C101.03 20.4567 100.798 21.0123 100.336 21.4793C99.8791 21.9464 99.3186 22.1774 98.6697 22.1774C98.0355 22.1774 97.4751 21.9414 96.9982 21.4695C96.5164 21.0024 96.2756 20.4469 96.2756 19.8176V9.14461C96.2756 8.49075 96.5164 7.93032 96.9884 7.45833C97.4652 6.98642 98.0257 6.75043 98.6697 6.75043ZM96.9245 1.00341C97.3964 0.52653 97.9765 0.285645 98.6697 0.285645C99.358 0.285645 99.9381 0.52653 100.41 1.00341C100.882 1.48518 101.118 2.07023 101.118 2.76338C101.118 3.44185 100.882 4.02193 100.41 4.49881C99.9381 4.97079 99.358 5.21168 98.6697 5.21168C97.9765 5.21168 97.3964 4.97079 96.9245 4.49881C96.4525 4.02193 96.2214 3.44185 96.2214 2.76338C96.2214 2.07023 96.4525 1.48518 96.9245 1.00341ZM111.285 6.75043C112.533 6.75043 113.635 7.07984 114.588 7.73859C115.542 8.39734 116.275 9.27734 116.776 10.3884C117.282 11.4994 117.533 12.7432 117.533 14.1247V19.8176C117.533 20.4469 117.302 21.0024 116.835 21.4695C116.368 21.9414 115.817 22.1774 115.173 22.1774C114.539 22.1774 113.979 21.9414 113.502 21.4695C113.02 21.0024 112.779 20.4469 112.779 19.8176V14.0706C112.779 13.3479 112.548 12.7334 112.091 12.2172C111.629 11.7059 111.083 11.4454 110.449 11.4454C109.815 11.4454 109.269 11.7059 108.812 12.2172C108.355 12.7334 108.129 13.3479 108.129 14.0706V19.8176C108.129 20.4469 107.893 21.0024 107.425 21.4695C106.954 21.9414 106.393 22.1774 105.739 22.1774C105.105 22.1774 104.554 21.9414 104.082 21.4695C103.611 21.0024 103.375 20.4469 103.375 19.8176V9.14461C103.375 8.48089 103.611 7.91556 104.082 7.44855C104.554 6.98642 105.105 6.75043 105.739 6.75043C106.172 6.75043 106.57 6.8635 106.934 7.08473C107.298 7.30597 107.588 7.59601 107.799 7.95983C108.856 7.15354 110.016 6.75043 111.285 6.75043Z" fill="#F1A904"/>
</svg>
