<svg width="32" height="31" viewBox="0 0 32 31" fill="none" xmlns="http://www.w3.org/2000/svg">
<path d="M22.7861 2.57776H9.89581C6.33626 2.57776 3.45068 5.46334 3.45068 9.02288V21.9131C3.45068 25.4727 6.33626 28.3582 9.89581 28.3582H22.7861C26.3456 28.3582 29.2312 25.4727 29.2312 21.9131V9.02288C29.2312 5.46334 26.3456 2.57776 22.7861 2.57776Z" stroke="white" stroke-width="2.32024" stroke-linecap="round" stroke-linejoin="round"/>
<path d="M21.4976 14.6563C21.6567 15.729 21.4735 16.8247 20.974 17.7873C20.4745 18.75 19.6842 19.5306 18.7154 20.0182C17.7467 20.5058 16.6489 20.6755 15.5782 20.5032C14.5074 20.3309 13.5183 19.8254 12.7514 19.0585C11.9845 18.2916 11.479 17.3025 11.3067 16.2317C11.1344 15.161 11.3041 14.0632 11.7917 13.0944C12.2793 12.1257 13.0599 11.3354 14.0226 10.8359C14.9852 10.3364 16.0808 10.1532 17.1536 10.3122C18.2479 10.4745 19.261 10.9844 20.0432 11.7667C20.8255 12.5489 21.3354 13.562 21.4976 14.6563Z" stroke="white" stroke-width="2.32024" stroke-linecap="round" stroke-linejoin="round"/>
<path d="M23.4312 8.37842H23.4421" stroke="white" stroke-width="2.32024" stroke-linecap="round" stroke-linejoin="round"/>
</svg>
