<svg width="32" height="31" viewBox="0 0 32 31" fill="none" xmlns="http://www.w3.org/2000/svg">
<path d="M29.7693 4.8217C28.6376 5.61998 27.3846 6.23054 26.0584 6.62987C25.3467 5.81148 24.4008 5.23142 23.3486 4.96816C22.2964 4.70489 21.1888 4.77111 20.1755 5.15787C19.1622 5.54462 18.2921 6.23325 17.6829 7.13062C17.0738 8.02798 16.7549 9.09079 16.7694 10.1753V11.3571C14.6926 11.411 12.6346 10.9503 10.7788 10.0163C8.92309 9.08221 7.32715 7.7037 6.13315 6.00351C6.13315 6.00351 1.40591 16.6398 12.0422 21.367C9.60829 23.0191 6.70887 23.8475 3.76953 23.7306C14.4058 29.6397 27.4057 23.7306 27.4057 10.1398C27.4046 9.81065 27.373 9.48227 27.3111 9.15894C28.5173 7.96944 29.3685 6.46762 29.7693 4.8217Z" stroke="white" stroke-width="2.12725" stroke-linecap="round" stroke-linejoin="round"/>
</svg>
