<svg width="32" height="31" viewBox="0 0 32 31" fill="none" xmlns="http://www.w3.org/2000/svg">
<path d="M11.2363 15.8345L11.2362 15.8344L11.2322 15.8291C11.1484 15.7169 10.8375 15.3009 10.5454 14.7254C10.2488 14.1412 9.9692 13.388 9.9692 12.6186C9.9692 11.1773 10.6806 10.4213 11.0023 10.0795C11.0237 10.0567 11.0433 10.0358 11.0609 10.0167L11.2363 15.8345ZM11.2363 15.8345C11.2475 15.8494 11.2691 15.8814 11.3008 15.9284C11.6905 16.5067 13.6075 19.3513 16.5177 20.4986L16.5374 20.4485L11.2363 15.8345ZM22.5366 18.2658L22.5367 18.2659C22.5625 18.3093 22.577 18.3828 22.5836 18.4701C22.5905 18.5604 22.5894 18.6747 22.5779 18.8067C22.5548 19.0708 22.4897 19.4089 22.3598 19.773C22.2254 20.15 21.8341 20.5113 21.4147 20.7823C20.9948 21.0538 20.5307 21.2449 20.2357 21.2712C20.2357 21.2712 20.2357 21.2712 20.2356 21.2712L22.5366 18.2658ZM22.5366 18.2658C22.4904 18.1885 22.4085 18.1312 22.3079 18.0759C22.2456 18.0416 22.171 18.0056 22.0872 17.9651C22.036 17.9403 21.9814 17.9139 21.9242 17.8853C21.7702 17.8081 21.3149 17.5834 20.8629 17.3652C20.4126 17.1478 19.9606 16.9345 19.8162 16.882C19.6767 16.8314 19.5429 16.7877 19.416 16.802C19.2831 16.817 19.1677 16.8936 19.0594 17.0564C18.8568 17.3609 18.2698 18.0511 18.0894 18.2567L18.0893 18.2568M22.5366 18.2658L18.0893 18.2568M18.0893 18.2568C18.0045 18.3541 17.9259 18.4021 17.8378 18.4129C17.7476 18.424 17.6373 18.3973 17.4869 18.3221C17.4345 18.2958 17.3635 18.2649 17.2763 18.227C16.8404 18.0373 15.9972 17.6704 15.0223 16.8018L14.9866 16.842M18.0893 18.2568L14.9866 16.842M14.9866 16.842L15.0223 16.8018C14.1135 15.9922 13.5013 14.9903 13.3223 14.6837L13.3223 14.6836M14.9866 16.842L13.3223 14.6836M13.3223 14.6836C13.2391 14.5413 13.2385 14.4393 13.2687 14.3576C13.3007 14.2709 13.3701 14.1984 13.4484 14.1208L13.4485 14.1207M13.3223 14.6836L13.4485 14.1207M13.4485 14.1207C13.5431 14.0266 13.6528 13.8932 13.7604 13.7624C13.8125 13.699 13.8642 13.6362 13.9133 13.5788L13.9135 13.5787M13.4485 14.1207L13.9135 13.5787M13.9135 13.5787C14.0473 13.4211 14.1064 13.3003 14.1829 13.144C14.1967 13.1159 14.211 13.0865 14.2265 13.0556M13.9135 13.5787L12.5138 9.6217L12.5149 9.62174C12.6239 9.62589 12.7517 9.63076 12.881 9.70577C13.0111 9.78123 13.1354 9.9229 13.2531 10.1846C13.3906 10.4902 13.6091 11.0243 13.8024 11.5001C13.8329 11.5751 13.8628 11.6486 13.8915 11.7195C14.0461 12.1005 14.1701 12.4059 14.2014 12.4687C14.2814 12.6294 14.34 12.8293 14.2265 13.0556M14.2265 13.0556L14.1784 13.0315M14.2265 13.0556C14.2265 13.0556 14.2265 13.0556 14.2265 13.0555L14.1784 13.0315M14.1784 13.0315C14.1626 13.0631 14.1481 13.0928 14.1342 13.1212C14.0579 13.277 14.0017 13.3917 13.8725 13.5438M14.1784 13.0315C14.2809 12.8272 14.2299 12.6468 14.1532 12.4927C14.1209 12.4278 13.9959 12.1198 13.8416 11.7396C13.6297 11.2175 13.3626 10.5591 13.2041 10.2067L13.8725 13.5438M13.8725 13.5438C13.8215 13.6033 13.7689 13.6673 13.7163 13.7313M13.8725 13.5438L13.7163 13.7313M13.7163 13.7313C13.6098 13.8608 13.5032 13.9903 13.4105 14.0826L13.7163 13.7313ZM10.2112 24.9033L10.2112 24.9033L5.54226 26.2057L6.8459 21.5393C6.91839 21.2799 6.88543 21.0024 6.75421 20.7672C5.87762 19.1957 5.37505 17.3943 5.37505 15.4673C5.37505 9.43448 10.2453 4.56426 16.2781 4.56426C22.311 4.56426 27.1812 9.43448 27.1812 15.4673C27.1812 21.5002 22.311 26.3704 16.2781 26.3704C14.353 26.3704 12.5523 25.8698 10.982 24.995C10.7472 24.8641 10.4702 24.8312 10.2112 24.9033ZM16.2781 2.52311C9.14082 2.52311 3.3339 8.33003 3.3339 15.4673C3.3339 17.5805 3.88855 19.5555 4.78795 21.3166L3.39632 26.2989C3.05955 27.5017 4.24605 28.688 5.44904 28.3517L10.4351 26.96C12.1948 27.8575 14.167 28.4115 16.2781 28.4115C23.4154 28.4115 29.2223 22.6046 29.2223 15.4673C29.2223 8.33003 23.4154 2.52311 16.2781 2.52311ZM11.9213 9.6141C11.7033 9.6141 11.3558 9.69572 11.061 10.0167L12.5137 9.62169C12.3334 9.61456 12.1261 9.6141 11.9213 9.6141Z" fill="white" stroke="white" stroke-width="0.107588"/>
</svg>
