<svg width="83" height="23" viewBox="0 0 83 23" fill="none" xmlns="http://www.w3.org/2000/svg">
<path fill-rule="evenodd" clip-rule="evenodd" d="M1.82705 16.7944C2.75037 16.7944 3.50568 15.9824 3.50568 14.9897V10.5788C3.50568 9.60374 4.24086 8.81326 5.14778 8.81326C6.05471 8.81326 6.78989 9.60376 6.78989 10.5788V14.9897C6.78989 15.9824 7.5452 16.7944 8.46852 16.7944C9.39185 16.7944 10.1472 15.9824 10.1472 14.9897V10.5789V10.5788C10.1471 7.56769 7.90895 5.12695 5.1478 5.12695C2.38665 5.12695 0.148438 7.56778 0.148438 10.5788V14.9897C0.148438 15.9824 0.903752 16.7944 1.82707 16.7944L1.82705 16.7944Z" fill="#F1A904"/>
<path fill-rule="evenodd" clip-rule="evenodd" d="M0.99022 6.5966C0.623711 7.12124 0.295518 7.6637 0.137863 8.2191V6.29538C0.0650219 6.17491 0.0226337 6.03112 0.0226337 5.87676C0.0226337 5.52319 0.244546 5.22544 0.546799 5.13552C0.218846 4.91959 0 4.53074 0 4.08701C0 3.57255 0.294137 3.13202 0.711471 2.94898C0.4823 2.63859 0.345338 2.24598 0.345338 1.81894C0.345338 0.814409 1.10278 0 2.03712 0C2.9715 0 3.72895 0.814395 3.72895 1.81894C3.72895 2.76303 3.05983 3.53914 2.20358 3.62906C2.25648 3.77061 2.28571 3.92514 2.28571 4.08701C2.28571 4.73619 1.81734 5.2678 1.22408 5.31261C1.36506 5.4531 1.45334 5.65385 1.45334 5.87676C1.45334 6.20604 1.26084 6.48694 0.990234 6.59661L0.99022 6.5966Z" fill="#C29206"/>
<path d="M17.0544 8.73452C16.4781 8.73452 15.9886 8.95473 15.5789 9.39144C15.1728 9.82814 14.9714 10.3619 14.9714 10.989C14.9714 11.6086 15.1728 12.1349 15.5789 12.5716C15.9886 13.012 16.4781 13.2285 17.0544 13.2285C17.6377 13.2285 18.1341 13.012 18.5403 12.5716C18.9465 12.1349 19.1513 11.6086 19.1513 10.989C19.1513 10.3619 18.9465 9.82814 18.5403 9.39144C18.1341 8.95473 17.6377 8.73452 17.0544 8.73452V8.73452ZM22.5085 10.989V15.0238C22.5085 15.5315 22.3419 15.9645 22.0086 16.3116C21.6753 16.6625 21.2448 16.8379 20.7171 16.8379C20.0783 16.8379 19.5576 16.5841 19.1513 16.0727C18.4848 16.5841 17.6828 16.8379 16.7385 16.8379C15.7977 16.8379 14.9297 16.5729 14.1417 16.0391C13.3501 15.5091 12.7321 14.7924 12.2843 13.8966C11.8364 13.0008 11.6143 12.0304 11.6143 10.989C11.6143 9.9289 11.8572 8.951 12.3398 8.05142C12.8259 7.15189 13.4855 6.43896 14.3256 5.91268C15.1623 5.39013 16.0719 5.12511 17.0544 5.12511C18.0369 5.12511 18.9465 5.38641 19.7797 5.90148C20.6164 6.42031 21.2795 7.12947 21.769 8.02906C22.262 8.92859 22.5085 9.91399 22.5085 10.989L22.5085 10.989ZM28.8722 5.12511C29.5318 5.12511 30.181 5.24084 30.8268 5.47226C31.469 5.6999 31.9863 6.03213 32.3717 6.47255C32.6216 6.74129 32.7466 7.09215 32.7466 7.52143C32.7466 7.98797 32.6043 8.40229 32.3161 8.76807C32.028 9.1339 31.6634 9.31302 31.2225 9.31302C30.7747 9.31302 30.4101 9.21597 30.122 9.01817C29.9623 8.895 29.8304 8.80544 29.7332 8.74572C29.6325 8.68599 29.5075 8.6337 29.3547 8.58146C29.202 8.52922 29.0423 8.50682 28.8722 8.50682C28.4243 8.50682 28.0598 8.6972 27.7751 9.08538C27.4904 9.46979 27.3481 9.97371 27.3481 10.5933V15.0462C27.3481 15.5315 27.1814 15.9533 26.8551 16.3078C26.5253 16.6625 26.1295 16.8379 25.6678 16.8379C25.213 16.8379 24.8241 16.6587 24.4943 16.3004C24.1645 15.9458 24.0013 15.524 24.0013 15.0462V10.5933C24.0013 8.91741 24.4527 7.58487 25.3519 6.6032C26.2545 5.61783 27.4279 5.12511 28.8722 5.12511V5.12511ZM34.5346 22.0747C34.0797 22.0747 33.6909 21.8955 33.3611 21.5409C33.0313 21.1826 32.8681 20.7645 32.8681 20.283V10.8359C32.8681 9.76093 33.1181 8.78675 33.6145 7.90961C34.1144 7.03242 34.7741 6.34567 35.5969 5.86043C36.4231 5.37143 37.3154 5.12509 38.277 5.12509C39.263 5.12509 40.1726 5.3864 41.0162 5.90895C41.8564 6.42774 42.5195 7.13696 43.009 8.03649C43.4951 8.93231 43.7416 9.91026 43.7416 10.9666C43.7416 11.7616 43.6062 12.5193 43.3319 13.2472C43.0611 13.9713 42.7001 14.5946 42.2487 15.1172C41.8009 15.636 41.2627 16.054 40.6379 16.3675C40.0129 16.6811 39.3672 16.8379 38.6972 16.8379C37.673 16.8379 36.8432 16.584 36.2149 16.0727V20.283C36.2149 20.772 36.0482 21.19 35.7219 21.5446C35.3921 21.8992 34.9963 22.0746 34.5346 22.0746L34.5346 22.0747ZM38.277 13.2285C38.8603 13.2285 39.3568 13.0083 39.7699 12.5678C40.1796 12.1274 40.3844 11.5936 40.3844 10.9666C40.3844 10.347 40.1796 9.82067 39.7699 9.38396C39.3568 8.95101 38.8603 8.73453 38.277 8.73453C37.7007 8.73453 37.2112 8.95103 36.8051 9.38396C36.3954 9.82067 36.194 10.347 36.194 10.9666C36.194 11.5936 36.3954 12.1274 36.8051 12.5678C37.2112 13.0083 37.7007 13.2285 38.277 13.2285V13.2285ZM50.1712 5.12512C51.0461 5.12512 51.8585 5.31173 52.6153 5.685C53.3721 6.05455 53.9692 6.55098 54.4067 7.16682C54.8441 7.7827 55.0628 8.43591 55.0628 9.13014C55.0628 9.40637 54.9934 9.62658 54.8546 9.79084C54.7157 9.95504 54.4796 10.1305 54.1463 10.3209L48.8172 13.3181C49.0464 13.5122 49.4664 13.613 50.067 13.613C50.7996 13.613 51.48 13.277 52.1015 12.6052C52.3479 12.3439 52.5806 12.1461 52.7993 12.0154C53.018 11.8848 53.268 11.8176 53.5457 11.8176C53.9935 11.8176 54.3477 11.9632 54.6115 12.2543C54.8719 12.5492 55.0004 12.9411 55.0004 13.4376C55.0004 13.7959 54.924 14.1019 54.7678 14.3557C54.2643 15.1433 53.5978 15.7517 52.768 16.1884C51.9383 16.6214 51.0461 16.8379 50.0879 16.8379C49.0707 16.8379 48.1437 16.5766 47.307 16.0503C46.4703 15.5241 45.8176 14.8149 45.349 13.9228C44.8803 13.0307 44.6477 12.0528 44.6477 10.989C44.6477 9.92893 44.8941 8.95103 45.3906 8.05145C45.8836 7.15192 46.5571 6.43899 47.4042 5.91271C48.2513 5.39016 49.1748 5.12514 50.1712 5.12514V5.12512ZM50.2302 8.30901C49.9802 8.30901 49.7164 8.36496 49.4386 8.47693C49.1609 8.59266 48.8936 8.75315 48.6436 8.96593C48.3937 9.17494 48.1854 9.45487 48.0222 9.80574C47.8625 10.1566 47.7757 10.5411 47.7688 10.9666L51.6432 8.80167C51.3412 8.47321 50.869 8.30901 50.2303 8.30901H50.2302ZM61.9994 5.12512C62.8812 5.12512 63.6588 5.37523 64.3324 5.87537C65.0059 6.37552 65.5232 7.04365 65.8773 7.88722C66.2349 8.73074 66.4119 9.67509 66.4119 10.724V15.0463C66.4119 15.5241 66.2487 15.9458 65.9189 16.3004C65.5891 16.6587 65.2003 16.8379 64.7455 16.8379C64.2976 16.8379 63.9019 16.6587 63.5651 16.3004C63.2249 15.9458 63.0548 15.5241 63.0548 15.0463V10.6829C63.0548 10.1342 62.8916 9.66767 62.5687 9.27571C62.2424 8.88753 61.857 8.68972 61.4092 8.68972C60.9613 8.68972 60.5759 8.88753 60.2531 9.27571C59.9302 9.66767 59.7705 10.1342 59.7705 10.6829V15.0463C59.7705 15.5241 59.6039 15.9458 59.2741 16.3004C58.9408 16.6587 58.545 16.8379 58.0832 16.8379C57.6354 16.8379 57.2466 16.6587 56.9133 16.3004C56.58 15.9458 56.4133 15.5241 56.4133 15.0463V6.94288C56.4133 6.43896 56.58 6.00974 56.9133 5.65516C57.2466 5.3043 57.6354 5.12512 58.0832 5.12512C58.3887 5.12512 58.67 5.21097 58.9269 5.37894C59.1838 5.54691 59.3886 5.76712 59.5379 6.04335C60.2843 5.43118 61.1036 5.12512 61.9993 5.12512H61.9994ZM69.6788 5.12512C70.144 5.12512 70.5398 5.3043 70.8627 5.65516C71.1855 6.00974 71.3453 6.43897 71.3453 6.94288V15.0463C71.3453 15.5315 71.1821 15.9533 70.8557 16.3079C70.5329 16.6625 70.137 16.8379 69.6788 16.8379C69.2309 16.8379 68.8352 16.6587 68.4984 16.3004C68.1582 15.9458 67.9881 15.5241 67.9881 15.0463V6.94288C67.9881 6.44645 68.1582 6.02094 68.4915 5.66259C68.8282 5.3043 69.224 5.12512 69.6788 5.12512V5.12512ZM68.4464 0.761752C68.7796 0.399687 69.1893 0.216797 69.6788 0.216797C70.1649 0.216797 70.5745 0.399687 70.9078 0.761752C71.2411 1.12753 71.4077 1.57173 71.4077 2.09799C71.4077 2.61311 71.2411 3.05354 70.9078 3.4156C70.5745 3.77395 70.1649 3.95684 69.6788 3.95684C69.1893 3.95684 68.7796 3.77395 68.4464 3.4156C68.1131 3.05354 67.9499 2.61311 67.9499 2.09799C67.9499 1.57173 68.1131 1.12753 68.4464 0.761752V0.761752ZM78.5873 5.12512C79.4691 5.12512 80.2467 5.37523 80.9203 5.87537C81.5938 6.37552 82.1111 7.04365 82.4652 7.88722C82.8228 8.73074 82.9998 9.67509 82.9998 10.724V15.0463C82.9998 15.5241 82.8367 15.9458 82.5068 16.3004C82.177 16.6587 81.7882 16.8379 81.3334 16.8379C80.8855 16.8379 80.4898 16.6587 80.153 16.3004C79.8128 15.9458 79.6427 15.5241 79.6427 15.0463V10.6829C79.6427 10.1342 79.4795 9.66767 79.1566 9.27571C78.8303 8.88753 78.445 8.68972 77.9971 8.68972C77.5492 8.68972 77.1639 8.88753 76.841 9.27571C76.5181 9.66767 76.3584 10.1342 76.3584 10.6829V15.0463C76.3584 15.5241 76.1918 15.9458 75.862 16.3004C75.5287 16.6587 75.1329 16.8379 74.6712 16.8379C74.2233 16.8379 73.8345 16.6587 73.5012 16.3004C73.1679 15.9458 73.0013 15.5241 73.0013 15.0463V6.94288C73.0013 6.43896 73.1679 6.00974 73.5012 5.65516C73.8345 5.3043 74.2233 5.12512 74.6712 5.12512C74.9767 5.12512 75.2579 5.21097 75.5148 5.37894C75.7717 5.54691 75.9766 5.76712 76.1258 6.04335C76.8722 5.43118 77.6916 5.12512 78.5873 5.12512H78.5873Z" fill="#F1A904"/>
</svg>
